<svg width="1440" height="784" viewBox="0 0 1440 784" fill="none" xmlns="http://www.w3.org/2000/svg">
<path d="M0 0H1004L139 784H0V0Z" fill="#FDF0D7"/>
<path d="M1005 0H1440V784H139L1005 0Z" fill="#515572"/>
<path fill-rule="evenodd" clip-rule="evenodd" d="M754.689 676.406C763.353 676.406 770.377 669.599 770.377 661.203C770.377 652.807 763.353 646 754.689 646C746.024 646 739 652.807 739 661.203C739 669.599 746.024 676.406 754.689 676.406Z" fill="#74B1F5"/>
<path fill-rule="evenodd" clip-rule="evenodd" d="M917.5 272.916C927.165 272.916 935 265.324 935 255.958C935 246.592 927.165 239 917.5 239C907.835 239 900 246.592 900 255.958C900 265.324 907.835 272.916 917.5 272.916Z" fill="#77E1E7"/>
<path fill-rule="evenodd" clip-rule="evenodd" d="M1429.5 129.607C1441.93 129.607 1452 119.845 1452 107.803C1452 95.7617 1441.93 86 1429.5 86C1417.07 86 1407 95.7617 1407 107.803C1407 119.845 1417.07 129.607 1429.5 129.607Z" fill="#EB8DB4"/>
<path fill-rule="evenodd" clip-rule="evenodd" d="M1344.72 598.031C1348.44 598.031 1351.45 595.114 1351.45 591.516C1351.45 587.917 1348.44 585 1344.72 585C1341.01 585 1338 587.917 1338 591.516C1338 595.114 1341.01 598.031 1344.72 598.031Z" fill="#6FB0F4"/>
<path fill-rule="evenodd" clip-rule="evenodd" d="M678.043 531.773C680.828 531.773 683.086 529.585 683.086 526.887C683.086 524.188 680.828 522 678.043 522C675.258 522 673 524.188 673 526.887C673 529.585 675.258 531.773 678.043 531.773Z" fill="#15D5C7"/>
<path fill-rule="evenodd" clip-rule="evenodd" d="M1093.84 646.203C1098.18 646.203 1101.69 642.8 1101.69 638.601C1101.69 634.403 1098.18 631 1093.84 631C1089.51 631 1086 634.403 1086 638.601C1086 642.8 1089.51 646.203 1093.84 646.203Z" fill="#A6EFF6"/>
<path fill-rule="evenodd" clip-rule="evenodd" d="M1365.57 457.234C1373.61 457.234 1380.14 450.914 1380.14 443.117C1380.14 435.32 1373.61 429 1365.57 429C1357.52 429 1351 435.32 1351 443.117C1351 450.914 1357.52 457.234 1365.57 457.234Z" fill="#A69BBA"/>
<path fill-rule="evenodd" clip-rule="evenodd" d="M1174.8 88.4296C1176.35 88.4296 1177.6 87.2142 1177.6 85.7148C1177.6 84.2155 1176.35 83 1174.8 83C1173.25 83 1172 84.2155 1172 85.7148C1172 87.2142 1173.25 88.4296 1174.8 88.4296Z" fill="#6FB0F4"/>
<path fill-rule="evenodd" clip-rule="evenodd" d="M1280.6 238.859C1283.7 238.859 1286.21 236.428 1286.21 233.43C1286.21 230.431 1283.7 228 1280.6 228C1277.51 228 1275 230.431 1275 233.43C1275 236.428 1277.51 238.859 1280.6 238.859Z" fill="#94B9FF"/>
<path fill-rule="evenodd" clip-rule="evenodd" d="M834.043 526.773C836.828 526.773 839.086 524.585 839.086 521.887C839.086 519.188 836.828 517 834.043 517C831.258 517 829 519.188 829 521.887C829 524.585 831.258 526.773 834.043 526.773Z" fill="#15D7C8"/>
<path fill-rule="evenodd" clip-rule="evenodd" d="M895.043 433.773C897.828 433.773 900.086 431.585 900.086 428.887C900.086 426.188 897.828 424 895.043 424C892.258 424 890 426.188 890 428.887C890 431.585 892.258 433.773 895.043 433.773Z" fill="#94B9FF"/>
<path fill-rule="evenodd" clip-rule="evenodd" d="M1220.52 430.684C1222.99 430.684 1225 428.739 1225 426.34C1225 423.941 1222.99 421.996 1220.52 421.996C1218.04 421.996 1216.03 423.941 1216.03 426.34C1216.03 428.739 1218.04 430.684 1220.52 430.684Z" fill="#FEABF9"/>
<path fill-rule="evenodd" clip-rule="evenodd" d="M1221.08 521.901C1223.86 521.901 1226.12 519.713 1226.12 517.014C1226.12 514.316 1223.86 512.128 1221.08 512.128C1218.29 512.128 1216.03 514.316 1216.03 517.014C1216.03 519.713 1218.29 521.901 1221.08 521.901Z" fill="#12D1C4"/>
<path fill-rule="evenodd" clip-rule="evenodd" d="M1024.97 220.015C1028.99 220.015 1032.25 216.855 1032.25 212.956C1032.25 209.058 1028.99 205.898 1024.97 205.898C1020.95 205.898 1017.68 209.058 1017.68 212.956C1017.68 216.855 1020.95 220.015 1024.97 220.015Z" fill="#D697E2"/>
<path d="M594.031 551.382C595.305 547.865 600.279 547.865 601.553 551.382L603.862 557.756C604.259 558.853 605.116 559.722 606.208 560.135L612.685 562.583C616.133 563.887 616.133 568.763 612.685 570.067L606.208 572.515C605.116 572.928 604.259 573.797 603.862 574.894L601.553 581.268C600.279 584.785 595.305 584.785 594.031 581.268L591.722 574.894C591.325 573.797 590.467 572.928 589.376 572.515L582.899 570.067C579.451 568.763 579.451 563.887 582.899 562.583L589.376 560.135C590.467 559.722 591.325 558.853 591.722 557.756L594.031 551.382Z" fill="#EB8DB4"/>
<path d="M931.677 585.712C932.869 582.422 937.521 582.422 938.713 585.712C939.085 586.739 939.892 587.553 940.913 587.94C944.204 589.183 944.204 593.86 940.913 595.104C939.892 595.49 939.085 596.305 938.713 597.332C937.521 600.621 932.869 600.621 931.677 597.332C931.305 596.305 930.498 595.49 929.477 595.104C926.186 593.86 926.186 589.183 929.477 587.94C930.498 587.553 931.305 586.739 931.677 585.712Z" fill="#F8E7EB"/>
<path d="M687.633 364.382C688.907 360.865 693.881 360.865 695.155 364.382L695.736 365.986C696.133 367.083 696.99 367.952 698.082 368.365L699.889 369.048C703.337 370.351 703.337 375.228 699.889 376.531L698.082 377.214C696.99 377.627 696.133 378.496 695.736 379.593L695.155 381.197C693.881 384.714 688.907 384.714 687.633 381.197L687.052 379.593C686.655 378.496 685.798 377.627 684.706 377.214L682.899 376.531C679.451 375.228 679.451 370.351 682.899 369.048L684.706 368.365C685.798 367.952 686.655 367.083 687.052 365.986L687.633 364.382Z" fill="#A4BEC6"/>
<path d="M1047.38 17.0633L1050.42 25.4563C1051.02 27.1025 1052.3 28.4061 1053.94 29.0252L1062.39 32.2206C1064.12 32.8722 1064.12 35.3106 1062.39 35.9622L1053.94 39.1576C1052.3 39.7767 1051.02 41.0803 1050.42 42.7265L1047.38 51.1195C1046.74 52.8779 1044.26 52.8779 1043.62 51.1195L1040.58 42.7265C1039.98 41.0803 1038.7 39.7767 1037.06 39.1576L1028.61 35.9622C1026.88 35.3106 1026.88 32.8722 1028.61 32.2206L1037.06 29.0252C1038.7 28.4061 1039.98 27.1025 1040.58 25.4563L1043.62 17.0633C1044.26 15.3049 1046.74 15.3049 1047.38 17.0633Z" fill="#E2B99C" stroke="#E2B99C" stroke-width="4"/>
<path d="M1065.03 385.382C1066.3 381.865 1071.28 381.865 1072.55 385.382L1074.86 391.756C1075.26 392.853 1076.12 393.722 1077.21 394.135L1083.68 396.583C1087.13 397.887 1087.13 402.763 1083.68 404.067L1077.21 406.515C1076.12 406.928 1075.26 407.797 1074.86 408.894L1072.55 415.268C1071.28 418.785 1066.3 418.785 1065.03 415.268L1062.72 408.894C1062.32 407.797 1061.47 406.928 1060.38 406.515L1053.9 404.067C1050.45 402.763 1050.45 397.887 1053.9 396.583L1060.38 394.135C1061.47 393.722 1062.32 392.853 1062.72 391.756L1065.03 385.382Z" fill="#FDF0D7"/>
</svg>
