<svg width="1346" height="594" viewBox="0 0 1346 594" fill="none" xmlns="http://www.w3.org/2000/svg">
<path fill-rule="evenodd" clip-rule="evenodd" d="M581.736 594C590.4 594 597.424 587.194 597.424 578.797C597.424 570.401 590.4 563.594 581.736 563.594C573.071 563.594 566.047 570.401 566.047 578.797C566.047 587.194 573.071 594 581.736 594Z" fill="#74B1F5"/>
<path fill-rule="evenodd" clip-rule="evenodd" d="M1244.58 314.918C1263.46 314.918 1278.76 300.089 1278.76 281.797C1278.76 263.505 1263.46 248.676 1244.58 248.676C1225.71 248.676 1210.4 263.505 1210.4 281.797C1210.4 300.089 1225.71 314.918 1244.58 314.918Z" fill="#FFAEFC"/>
<path fill-rule="evenodd" clip-rule="evenodd" d="M1339.28 569.024C1342.99 569.024 1346 566.107 1346 562.508C1346 558.91 1342.99 555.993 1339.28 555.993C1335.56 555.993 1332.55 558.91 1332.55 562.508C1332.55 566.107 1335.56 569.024 1339.28 569.024Z" fill="#6FB0F4"/>
<path fill-rule="evenodd" clip-rule="evenodd" d="M585.657 457.174C587.823 457.174 589.579 455.472 589.579 453.373C589.579 451.274 587.823 449.572 585.657 449.572C583.491 449.572 581.735 451.274 581.735 453.373C581.735 455.472 583.491 457.174 585.657 457.174Z" fill="#B4EDF5"/>
<path fill-rule="evenodd" clip-rule="evenodd" d="M267.965 421.375C272.916 421.375 276.93 417.485 276.93 412.687C276.93 407.889 272.916 404 267.965 404C263.014 404 259 407.889 259 412.687C259 417.485 263.014 421.375 267.965 421.375Z" fill="#D496E7"/>
<path fill-rule="evenodd" clip-rule="evenodd" d="M295.416 570.11C296.963 570.11 298.217 568.894 298.217 567.395C298.217 565.896 296.963 564.68 295.416 564.68C293.869 564.68 292.614 565.896 292.614 567.395C292.614 568.894 293.869 570.11 295.416 570.11Z" fill="#FFABFD"/>
<path fill-rule="evenodd" clip-rule="evenodd" d="M6.85581 386.588C10.5692 386.588 13.5795 383.671 13.5795 380.073C13.5795 376.474 10.5692 373.557 6.85581 373.557C3.1424 373.557 0.13208 376.474 0.13208 380.073C0.13208 383.671 3.1424 386.588 6.85581 386.588Z" fill="#FEACFB"/>
<path fill-rule="evenodd" clip-rule="evenodd" d="M625.525 306.457C630.786 306.457 635.05 302.324 635.05 297.226C635.05 292.129 630.786 287.996 625.525 287.996C620.264 287.996 616 292.129 616 297.226C616 302.324 620.264 306.457 625.525 306.457Z" fill="#FFD589"/>
<path fill-rule="evenodd" clip-rule="evenodd" d="M483.68 570.11C485.846 570.11 487.602 568.408 487.602 566.309C487.602 564.21 485.846 562.508 483.68 562.508C481.514 562.508 479.758 564.21 479.758 566.309C479.758 568.408 481.514 570.11 483.68 570.11Z" fill="#F62502"/>
<path fill-rule="evenodd" clip-rule="evenodd" d="M483.68 383.33C486.465 383.33 488.722 381.143 488.722 378.444C488.722 375.745 486.465 373.557 483.68 373.557C480.894 373.557 478.637 375.745 478.637 378.444C478.637 381.143 480.894 383.33 483.68 383.33Z" fill="#15D5C7"/>
<path fill-rule="evenodd" clip-rule="evenodd" d="M529.066 10.8592C532.16 10.8592 534.669 8.42831 534.669 5.42961C534.669 2.43092 532.16 0 529.066 0C525.971 0 523.462 2.43092 523.462 5.42961C523.462 8.42831 525.971 10.8592 529.066 10.8592Z" fill="#A0EFFB"/>
<path fill-rule="evenodd" clip-rule="evenodd" d="M223.603 61.8592C226.698 61.8592 229.206 59.4283 229.206 56.4296C229.206 53.4309 226.698 51 223.603 51C220.509 51 218 53.4309 218 56.4296C218 59.4283 220.509 61.8592 223.603 61.8592Z" fill="#FA990E"/>
<path fill-rule="evenodd" clip-rule="evenodd" d="M865.251 571.196C869.583 571.196 873.095 567.792 873.095 563.594C873.095 559.396 869.583 555.993 865.251 555.993C860.919 555.993 857.407 559.396 857.407 563.594C857.407 567.792 860.919 571.196 865.251 571.196Z" fill="#A6EFF6"/>
<path fill-rule="evenodd" clip-rule="evenodd" d="M1063.57 518.234C1071.61 518.234 1078.14 511.914 1078.14 504.117C1078.14 496.32 1071.61 490 1063.57 490C1055.52 490 1049 496.32 1049 504.117C1049 511.914 1055.52 518.234 1063.57 518.234Z" fill="#D496E7"/>
<path fill-rule="evenodd" clip-rule="evenodd" d="M1244.58 563.594C1246.13 563.594 1247.38 562.379 1247.38 560.879C1247.38 559.38 1246.13 558.165 1244.58 558.165C1243.04 558.165 1241.78 559.38 1241.78 560.879C1241.78 562.379 1243.04 563.594 1244.58 563.594Z" fill="#6FB0F4"/>
<path fill-rule="evenodd" clip-rule="evenodd" d="M1113.6 94.8592C1116.7 94.8592 1119.21 92.4283 1119.21 89.4296C1119.21 86.4309 1116.7 84 1113.6 84C1110.51 84 1108 86.4309 1108 89.4296C1108 92.4283 1110.51 94.8592 1113.6 94.8592Z" fill="#94B9FF"/>
<path fill-rule="evenodd" clip-rule="evenodd" d="M727.975 495.182C730.76 495.182 733.018 492.994 733.018 490.295C733.018 487.596 730.76 485.408 727.975 485.408C725.19 485.408 722.932 487.596 722.932 490.295C722.932 492.994 725.19 495.182 727.975 495.182Z" fill="#15D7C8"/>
<path fill-rule="evenodd" clip-rule="evenodd" d="M728.043 289.773C730.828 289.773 733.085 287.585 733.085 284.887C733.085 282.188 730.828 280 728.043 280C725.258 280 723 282.188 723 284.887C723 287.585 725.258 289.773 728.043 289.773Z" fill="#94B9FF"/>
<path fill-rule="evenodd" clip-rule="evenodd" d="M1053.52 286.683C1055.99 286.683 1058 284.739 1058 282.34C1058 279.941 1055.99 277.996 1053.52 277.996C1051.04 277.996 1049.03 279.941 1049.03 282.34C1049.03 284.739 1051.04 286.683 1053.52 286.683Z" fill="#FEABF9"/>
<path fill-rule="evenodd" clip-rule="evenodd" d="M1054.08 377.901C1056.86 377.901 1059.12 375.713 1059.12 373.015C1059.12 370.316 1056.86 368.128 1054.08 368.128C1051.29 368.128 1049.03 370.316 1049.03 373.015C1049.03 375.713 1051.29 377.901 1054.08 377.901Z" fill="#12D1C4"/>
<path fill-rule="evenodd" clip-rule="evenodd" d="M857.968 76.015C861.991 76.015 865.252 72.8548 865.252 68.9565C865.252 65.0581 861.991 61.8979 857.968 61.8979C853.945 61.8979 850.684 65.0581 850.684 68.9565C850.684 72.8548 853.945 76.015 857.968 76.015Z" fill="#D697E2"/>
<path fill-rule="evenodd" clip-rule="evenodd" d="M73.6031 487.859C76.6976 487.859 79.2062 485.428 79.2062 482.43C79.2062 479.431 76.6976 477 73.6031 477C70.5086 477 68 479.431 68 482.43C68 485.428 70.5086 487.859 73.6031 487.859Z" fill="#F99915"/>
<path fill-rule="evenodd" clip-rule="evenodd" d="M625.603 302.859C628.697 302.859 631.206 300.428 631.206 297.43C631.206 294.431 628.697 292 625.603 292C622.508 292 620 294.431 620 297.43C620 300.428 622.508 302.859 625.603 302.859Z" fill="#F99915"/>
</svg>
