<svg width="642" height="608" viewBox="0 0 642 608" fill="none" xmlns="http://www.w3.org/2000/svg">
<path fill-rule="evenodd" clip-rule="evenodd" d="M145.689 601.406C154.353 601.406 161.377 594.599 161.377 586.203C161.377 577.807 154.353 571 145.689 571C137.024 571 130 577.807 130 586.203C130 594.599 137.024 601.406 145.689 601.406Z" fill="#74B1F5"/>
<path fill-rule="evenodd" clip-rule="evenodd" d="M178.5 227.916C188.165 227.916 196 220.324 196 210.958C196 201.592 188.165 194 178.5 194C168.835 194 161 201.592 161 210.958C161 220.324 168.835 227.916 178.5 227.916Z" fill="#77E1E7"/>
<path fill-rule="evenodd" clip-rule="evenodd" d="M618.5 115.607C630.926 115.607 641 105.845 641 93.8033C641 81.7617 630.926 72 618.5 72C606.074 72 596 81.7617 596 93.8033C596 105.845 606.074 115.607 618.5 115.607Z" fill="#EB8DB4"/>
<path fill-rule="evenodd" clip-rule="evenodd" d="M579.724 607.031C583.437 607.031 586.447 604.114 586.447 600.516C586.447 596.917 583.437 594 579.724 594C576.01 594 573 596.917 573 600.516C573 604.114 576.01 607.031 579.724 607.031Z" fill="#6FB0F4"/>
<path fill-rule="evenodd" clip-rule="evenodd" d="M354.844 601.203C359.177 601.203 362.689 597.8 362.689 593.601C362.689 589.403 359.177 586 354.844 586C350.512 586 347 589.403 347 593.601C347 597.8 350.512 601.203 354.844 601.203Z" fill="#A6EFF6"/>
<path fill-rule="evenodd" clip-rule="evenodd" d="M626.568 412.234C634.614 412.234 641.136 405.914 641.136 398.117C641.136 390.32 634.614 384 626.568 384C618.522 384 612 390.32 612 398.117C612 405.914 618.522 412.234 626.568 412.234Z" fill="#A69BBA"/>
<path fill-rule="evenodd" clip-rule="evenodd" d="M541.603 193.859C544.698 193.859 547.206 191.428 547.206 188.43C547.206 185.431 544.698 183 541.603 183C538.509 183 536 185.431 536 188.43C536 191.428 538.509 193.859 541.603 193.859Z" fill="#94B9FF"/>
<path fill-rule="evenodd" clip-rule="evenodd" d="M95.0428 481.773C97.8279 481.773 100.086 479.585 100.086 476.887C100.086 474.188 97.8279 472 95.0428 472C92.2577 472 90 474.188 90 476.887C90 479.585 92.2577 481.773 95.0428 481.773Z" fill="#15D7C8"/>
<path fill-rule="evenodd" clip-rule="evenodd" d="M156.043 388.773C158.828 388.773 161.086 386.585 161.086 383.887C161.086 381.188 158.828 379 156.043 379C153.258 379 151 381.188 151 383.887C151 386.585 153.258 388.773 156.043 388.773Z" fill="#94B9FF"/>
<path fill-rule="evenodd" clip-rule="evenodd" d="M481.516 385.684C483.992 385.684 485.999 383.739 485.999 381.34C485.999 378.941 483.992 376.996 481.516 376.996C479.04 376.996 477.034 378.941 477.034 381.34C477.034 383.739 479.04 385.684 481.516 385.684Z" fill="#FEABF9"/>
<path d="M557.031 506.382C558.305 502.865 563.279 502.865 564.553 506.382L566.862 512.756C567.259 513.853 568.116 514.722 569.208 515.135L575.685 517.583C579.133 518.887 579.133 523.763 575.685 525.067L569.208 527.515C568.116 527.928 567.259 528.797 566.862 529.894L564.553 536.268C563.279 539.785 558.305 539.785 557.031 536.268L554.722 529.894C554.325 528.797 553.467 527.928 552.376 527.515L545.899 525.067C542.451 523.763 542.451 518.887 545.899 517.583L552.376 515.135C553.467 514.722 554.325 513.853 554.722 512.756L557.031 506.382Z" fill="#EB8DB4"/>
<path d="M282.677 455.712C283.869 452.422 288.521 452.422 289.713 455.712V455.712C290.085 456.739 290.892 457.553 291.913 457.94V457.94C295.204 459.183 295.204 463.86 291.913 465.104V465.104C290.892 465.49 290.085 466.305 289.713 467.332V467.332C288.521 470.621 283.869 470.621 282.677 467.332V467.332C282.305 466.305 281.498 465.49 280.477 465.104V465.104C277.186 463.86 277.186 459.183 280.477 457.94V457.94C281.498 457.553 282.305 456.739 282.677 455.712V455.712Z" fill="#EB8DB4"/>
<path d="M14.6331 318.382C15.907 314.865 20.8808 314.865 22.1548 318.382L22.7356 319.986C23.1332 321.083 23.9903 321.952 25.0822 322.365L26.8892 323.048C30.3368 324.351 30.3368 329.228 26.8892 330.531L25.0822 331.214C23.9903 331.627 23.1332 332.496 22.7356 333.593L22.1548 335.197C20.8808 338.714 15.907 338.714 14.6331 335.197L14.0522 333.593C13.6547 332.496 12.7976 331.627 11.7057 331.214L9.89871 330.531C6.45111 329.228 6.45111 324.351 9.89871 323.048L11.7057 322.365C12.7976 321.952 13.6547 321.083 14.0522 319.986L14.6331 318.382Z" fill="#A4BEC6"/>
<path d="M372.38 11.0633L375.421 19.4563C376.017 21.1025 377.303 22.4061 378.941 23.0252L387.394 26.2206C389.118 26.8722 389.118 29.3106 387.394 29.9622L378.941 33.1576C377.303 33.7767 376.017 35.0803 375.421 36.7265L372.38 45.1195C371.743 46.8779 369.257 46.8779 368.62 45.1195L365.579 36.7265C364.983 35.0803 363.697 33.7767 362.059 33.1576L353.606 29.9622C351.882 29.3106 351.882 26.8722 353.606 26.2206L362.059 23.0252C363.697 22.4061 364.983 21.1025 365.579 19.4563L368.62 11.0633C369.257 9.30485 371.743 9.30485 372.38 11.0633Z" fill="#E2B99C" stroke="#E2B99C" stroke-width="4"/>
<path d="M519.031 286.382C520.305 282.865 525.279 282.865 526.553 286.382L528.862 292.756C529.259 293.853 530.116 294.722 531.208 295.135L537.685 297.583C541.133 298.887 541.133 303.763 537.685 305.067L531.208 307.515C530.116 307.928 529.259 308.797 528.862 309.894L526.553 316.268C525.279 319.785 520.305 319.785 519.031 316.268L516.722 309.894C516.325 308.797 515.467 307.928 514.376 307.515L507.899 305.067C504.451 303.763 504.451 298.887 507.899 297.583L514.376 295.135C515.467 294.722 516.325 293.853 516.722 292.756L519.031 286.382Z" fill="#FDF0D7"/>
</svg>
